#!OML:ASF H:\Terrain\Walking\May29\JustinRory\Justin.ASF
:FULLY-SPECIFIED
:DEGREES
65
root 14.9642 17.562 5.28759 -171.497 3.44423 -175.457
lowerback 3.79126 5.98424 0.719674
upperback -0.141618 8.00814 -0.378272
thorax -2.10313 3.98858 -1.21899
lowerneck -14.1602 -6.20427 -13.2195
upperneck 18.1119 -7.08148 5.89027
head 8.68479 -3.77584 3.28815
rclavicle 3.39922e-014 9.93923e-015
rhumerus -13.126 6.168 -80.6032
rradius 51.8892
rwrist -16.8543
rhand -11.0417 21.9919
rfingers 7.12502
rthumb 14.9803 -7.44622
lclavicle 3.39922e-014 9.93923e-015
lhumerus -37.2418 13.5783 74.0936
lradius 36.8638
lwrist -8.2202
lhand 2.94125 37.5684
lfingers 7.12502
lthumb 28.4044 65.4331
rfemur 6.01632 -3.13002 23.5945
rtibia 32.3795
rfoot 2.67217 5.95643
rtoes -6.65317
lfemur -37.3088 0.574751 -18.9622
ltibia 33.9641
lfoot -4.19365 5.63407
ltoes -2.72647
66
root 14.9655 17.5523 5.12699 -171.888 3.3042 -175.365
lowerback 3.76426 5.9996 0.812368
upperback 0.0642334 8.03557 -0.391016
thorax -1.86114 4.00634 -1.2646
lowerneck -14.305 -6.2664 -13.1875
upperneck 18.1342 -7.17739 6.03013
head 8.73185 -3.80007 3.31549
rclavicle 6.5102e-014 2.3059e-014
rhumerus -12.9353 6.2662 -80.5296
rradius 52.4821
rwrist -16.2657
rhand -10.2216 21.4316
rfingers 7.12502
rthumb 15.7702 -7.94599
lclavicle 6.5102e-014 2.3059e-014
lhumerus -36.8227 14.0512 73.7121
lradius 36.3863
lwrist -8.4255
lhand 3.17025 37.9791
lfingers 7.12502
lthumb 28.6232 65.807
rfemur 4.75606 -3.63076 23.2679
rtibia 35.464
rfoot 6.21775 5.81786
rtoes -2.55522
lfemur -36.6355 0.917869 -19.0265
ltibia 34.6844
lfoot -4.76177 5.05245
ltoes -2.99627
67
root 14.9658 17.5425 4.97074 -172.241 3.15023 -175.006
lowerback 3.75658 5.99787 1.2711
upperback 0.279621 8.05845 -0.348652
thorax -1.57815 4.02107 -1.45175
lowerneck -14.7555 -6.38005 -13.4617
upperneck 18.4238 -7.29721 6.4137
head 8.95044 -3.83222 3.46688
rclavicle -4.80065e-014 -1.59028e-015
rhumerus -12.5805 6.68833 -80.3729
rradius 53.0904
rwrist -16.3195
rhand -9.6987 20.7451
rfingers 7.12502
rthumb 16.2738 -8.592
lclavicle -4.80065e-014 -1.59028e-015
lhumerus -36.5617 14.4189 73.4065
lradius 36.2369
lwrist -8.48068
lhand 3.35442 38.2998
lfingers 7.12502
lthumb 28.7992 66.0979
rfemur 3.34869 -3.98328 23.2922
rtibia 38.5158
rfoot 9.80292 5.88364
rtoes -0.172512
lfemur -36.0242 1.14553 -18.7066
ltibia 35.4215
lfoot -5.18418 4.412
ltoes -4.13293
68
root 14.9672 17.5359 4.81859 -172.593 3.15772 -175.295
lowerback 4.07493 6.02912 0.94581
upperback 0.21992 8.08641 -0.475912
thorax -1.84193 4.03325 -1.44933
lowerneck -14.9714 -6.46652 -13.7412
upperneck 18.8442 -7.42991 6.75599
head 9.17363 -3.8881 3.60933
rclavicle 1.00386e-014 1.47101e-014
rhumerus -12.5593 7.38911 -80.1952
rradius 53.6846
rwrist -16.9221
rhand -8.84552 20.2023
rfingers 7.12502
rthumb 17.0951 -9.06557
lclavicle 1.00386e-014 1.47101e-014
lhumerus -36.6888 14.7598 72.9532
lradius 35.9894
lwrist -8.66611
lhand 3.27171 38.2303
lfingers 7.12502
lthumb 28.7202 66.0418
rfemur 1.85404 -4.15178 22.602
rtibia 41.5809
rfoot 12.6885 6.02534
rtoes 1.08358
lfemur -35.4188 0.960804 -18.9516
ltibia 36.1224
lfoot -5.49937 4.19998
ltoes -4.23003
69
root 14.9675 17.525 4.67286 -173.009 3.16537 -175.677
lowerback 4.53851 6.06696 0.548732
upperback 0.0985793 8.11634 -0.623569
thorax -2.25714 4.04552 -1.45171
lowerneck -14.8562 -6.50587 -13.9181
upperneck 19.1184 -7.56747 7.07662
head 9.2826 -3.94768 3.73435
rclavicle 3.69739e-014 2.38542e-015
rhumerus -12.734 8.00655 -79.9576
rradius 54.4142
rwrist -17.3496
rhand -8.29277 20.9056
rfingers 7.12502
rthumb 17.6271 -8.31532
lclavicle 3.69739e-014 2.38542e-015
lhumerus -36.6327 15.0471 72.5185
lradius 35.3782
lwrist -8.91438
lhand 3.0357 38.3562
lfingers 7.12502
lthumb 28.4947 66.2057
rfemur 0.394651 -4.15569 21.8533
rtibia 44.7092
rfoot 15.2234 5.94592
rtoes 3.57723
lfemur -34.7225 0.965983 -19.3848
ltibia 36.6592
lfoot -5.80578 3.9841
ltoes -4.92878
70
root 14.9736 17.5127 4.53116 -173.492 3.02586 -175.875
lowerback 4.99123 6.14204 0.444081
upperback 0.0678791 8.21059 -0.777365
thorax -2.53029 4.09054 -1.6136
lowerneck -14.699 -6.55859 -13.9636
upperneck 19.3731 -7.77408 7.43903
head 9.38165 -4.02678 3.84455
rclavicle 4.04527e-014 -9.14409e-015
rhumerus -12.8504 8.31903 -79.6415
rradius 55.2563
rwrist -17.7814
rhand -7.42652 22.5927
rfingers 7.12502
rthumb 18.4606 -6.55133
lclavicle 4.04527e-014 -9.14409e-015
lhumerus -36.2596 15.0684 72.1885
lradius 34.8063
lwrist -9.10191
lhand 3.08282 38.814
lfingers 7.12502
lthumb 28.5397 66.656
rfemur -1.04274 -4.12123 21.466
rtibia 47.8944
rfoot 17.414 5.9509
rtoes 5.06118
lfemur -33.9128 1.20513 -19.692
ltibia 37.0136
lfoot -6.09204 3.43073
ltoes -6.74097
71
root 14.9828 17.5159 4.38013 -173.867 2.7666 -176.31
lowerback 5.22904 6.24555 0.0467316
upperback 0.0433296 8.32331 -0.983048
thorax -2.71045 4.14985 -1.64766
lowerneck -14.6082 -6.69703 -13.9306
upperneck 19.696 -8.06156 7.553
head 9.51424 -4.1621 3.84128
rclavicle -1.32291e-013 2.70347e-014
rhumerus -12.7629 8.40296 -79.2066
rradius 55.8453
rwrist -18.2117
rhand -5.81664 22.0744
rfingers 7.12502
rthumb 20.0086 -6.9154
lclavicle -1.32291e-013 2.70347e-014
lhumerus -36.1824 14.5819 72.076
lradius 34.8715
lwrist -9.03399
lhand 3.29026 39.3889
lfingers 7.12502
lthumb 28.7379 67.1975
rfemur -2.62079 -4.20934 20.8946
rtibia 51.0653
rfoot 18.726 5.88968
rtoes 4.63366
lfemur -33.1084 1.21284 -20.205
ltibia 37.2687
lfoot -6.52819 2.88975
ltoes -6.76577
72
root 14.986 17.5198 4.22405 -174.058 2.32302 -176.913
lowerback 5.08732 6.2119 -0.347438
upperback 0.120301 8.2583 -1.29669
thorax -2.56265 4.12648 -1.72595
lowerneck -14.6282 -6.85103 -13.7818
upperneck 19.7816 -8.30204 7.47943
head 9.5662 -4.27119 3.75572
rclavicle 1.28415e-013 -5.96354e-015
rhumerus -12.2518 8.50481 -78.8254
rradius 56.1154
rwrist -17.9246
rhand -4.80483 23.1962
rfingers 7.12502
rthumb 20.9809 -5.68899
lclavicle 1.28415e-013 -5.96354e-015
lhumerus -35.9465 14.2239 71.9416
lradius 35.0036
lwrist -9.02469
lhand 3.40197 39.5875
lfingers 7.12502
lthumb 28.8446 67.3779
rfemur -4.33852 -4.52584 20.1385
rtibia 54.2216
rfoot 18.6064 5.47494
rtoes 3.26909
lfemur -32.3973 0.86559 -20.8906
ltibia 37.3986
lfoot -7.04183 2.68578
ltoes -6.96654
73
root 14.993 17.5058 4.0808 -174.424 1.75986 -177.448
lowerback 5.19294 6.16184 -0.672239
upperback 0.267913 8.18158 -1.54655
thorax -2.47928 4.09775 -1.80128
lowerneck -14.6905 -6.98461 -13.6685
upperneck 19.8706 -8.53503 7.56177
head 9.63432 -4.36235 3.73108
rclavicle -1.31894e-013 2.06736e-014
rhumerus -11.7387 8.60706 -78.2828
rradius 56.4793
rwrist -17.4152
rhand -3.8631 23.3661
rfingers 7.12502
rthumb 21.8854 -5.41611
lclavicle -1.31894e-013 2.06736e-014
lhumerus -35.3087 13.9607 71.9107
lradius 34.7459
lwrist -9.17813
lhand 3.3439 39.6786
lfingers 7.12502
lthumb 28.7891 67.4784
rfemur -5.781 -5.03309 19.5171
rtibia 57.2933
rfoot 17.3803 4.40125
rtoes 1.48736
lfemur -31.516 0.55854 -21.5241
ltibia 37.3721
lfoot -7.48948 2.50912
ltoes -9.05694
74
root 15.0067 17.5054 3.94573 -174.881 0.985179 -177.948
lowerback 5.59333 6.05801 -1.23332
upperback 0.322759 8.01022 -1.57122
thorax -2.72178 4.01998 -1.5584
lowerneck -14.7468 -7.05909 -13.7563
upperneck 20.3232 -8.69705 7.66826
head 9.83229 -4.44814 3.75917
rclavicle 8.54774e-015 -2.78299e-015
rhumerus -11.3133 9.04064 -77.4501
rradius 56.9473
rwrist -17.7015
rhand -2.7785 23.9112
rfingers 7.12502
rthumb 22.9265 -4.74564
lclavicle 8.54774e-015 -2.78299e-015
lhumerus -34.8786 13.7277 72.073
lradius 34.508
lwrist -9.39818
lhand 3.40703 39.7614
lfingers 7.12502
lthumb 28.8494 67.551
rfemur -7.15215 -5.67722 18.9822
rtibia 60.2415
rfoot 15.6267 2.66592
rtoes 1.28254
lfemur -30.5007 0.141599 -22.071
ltibia 37.2304
lfoot -8.10171 2.21721
ltoes -7.539
75
root 15.0162 17.5228 3.80822 -175.208 -0.0240377 -178.467
lowerback 5.70311 5.75018 -1.87381
upperback 0.494768 7.56994 -1.45415
thorax -2.70914 3.81103 -1.06155
lowerneck -15.0243 -7.13344 -14.0517
upperneck 20.703 -8.72191 7.64392
head 10.0366 -4.48756 3.78903
rclavicle -1.99779e-014 2.34566e-014
rhumerus -10.3941 9.76395 -76.4583
rradius 57.2655
rwrist -18.1873
rhand -1.74124 24.1729
rfingers 7.12502
rthumb 23.9216 -4.35707
lclavicle -1.99779e-014 2.34566e-014
lhumerus -34.4932 13.8365 72.3775
lradius 34.5156
lwrist -9.63198
lhand 3.63153 39.8133
lfingers 7.12502
lthumb 29.0639 67.566
rfemur -8.65571 -6.5065 18.4029
rtibia 63.0205
rfoot 13.6106 0.692834
rtoes 3.95372
lfemur -29.5491 -0.501057 -22.6268
ltibia 37.071
lfoot -9.06883 1.90697
ltoes 1.1518
76
root 15.0268 17.5313 3.67314 -175.57 -1.09116 -178.935
lowerback 5.91529 5.67049 -2.18708
upperback 0.537909 7.29317 -1.56348
thorax -2.80923 3.61768 -0.998865
lowerneck -14.5596 -7.22551 -13.9025
upperneck 20.6206 -8.93454 7.50227
head 9.9314 -4.60361 3.69246
rclavicle -2.29596e-014 2.62396e-014
rhumerus -9.85638 9.59685 -75.6938
rradius 57.5955
rwrist -18.4309
rhand -0.680513 24.3054
rfingers 7.12502
rthumb 24.9384 -4.08735
lclavicle -2.29596e-014 2.62396e-014
lhumerus -34.2541 12.7852 72.7216
lradius 34.8616
lwrist -9.43258
lhand 3.57551 39.8193
lfingers 7.12502
lthumb 29.0104 67.5813
rfemur -10.0235 -7.57829 17.878
rtibia 65.5121
rfoot 11.4797 -0.730848
rtoes 4.66249
lfemur -28.5951 -1.06038 -23.1501
ltibia 36.9218
lfoot -8.71706 1.20671
ltoes -9.53431
77
root 15.044 17.5327 3.54574 -175.811 -2.12098 -178.992
lowerback 6.32252 5.777 -1.82004
upperback 0.0949998 7.42572 -1.95615
thorax -3.39588 3.67642 -1.68356
lowerneck -12.9322 -7.24585 -13.016
upperneck 20.4627 -9.42022 7.30756
head 9.5686 -4.84444 3.45229
rclavicle 8.42847e-014 1.59028e-015
rhumerus -10.3817 8.51011 -75.3998
rradius 58.0082
rwrist -18.3056
rhand 0.224535 24.3152
rfingers 7.12502
rthumb 25.8054 -3.95447
lclavicle 8.42847e-014 1.59028e-015
lhumerus -34.3403 10.6294 72.7124
lradius 35.1644
lwrist -9.2898
lhand 3.62555 39.1425
lfingers 7.12502
lthumb 29.0581 66.8963
rfemur -11.5811 -8.66184 17.879
rtibia 67.7046
rfoot 9.10621 -1.9237
rtoes 2.26104
lfemur -27.9059 -1.4823 -23.1994
ltibia 36.8311
lfoot -9.12806 0.524384
ltoes -10.5595
78
root 15.0565 17.5345 3.41758 -175.956 -3.13252 -178.849
lowerback 6.42045 5.75804 -1.41523
upperback -0.136476 7.4236 -2.08918
thorax -3.62126 3.66907 -2.06466
lowerneck -11.9249 -7.3067 -12.6761
upperneck 20.5027 -9.7975 7.38331
head 9.42067 -5.0333 3.39958
rclavicle -9.74045e-015 4.29375e-014
rhumerus -10.4662 8.08341 -74.8588
rradius 58.3834
rwrist -17.6376
rhand -0.0812021 24.1805
rfingers 7.12502
rthumb 25.5126 -4.13142
lclavicle -9.74045e-015 4.29375e-014
lhumerus -34.1147 9.21869 72.9022
lradius 35.3756
lwrist -9.18562
lhand 3.66608 38.7147
lfingers 7.12502
lthumb 29.0969 66.4617
rfemur -13.2899 -9.52199 18.1194
rtibia 69.5435
rfoot 6.91808 -3.48852
rtoes 1.28348
lfemur -27.3804 -1.85859 -23.0353
ltibia 36.851
lfoot -9.6244 -0.121332
ltoes -8.85927
